PathFileType	4	(X/Y/Z)	 s02c0202.trc
DataRate	CameraRate	NumFrames	NumMarkers	Units	OrigDataRate	OrigDataStartFrame	OrigNumFrames
200	200	6	50	mm	200	1	2000
Frame#	Time	racr			lacr			c7			jug			rlel			rdr			llel			ldr			s2			lic			ric			lasi			rasi			rpsi			lpsi			rgt			lgt			rth1			rth2			rth3			rth4			rlfc			rmfc			rsh1			rsh2			rsh3			rsh4			rlmal			rmmal			rtoe			rmt5			rmt1			lth1			lth2			lth4			lth3			llfc			lmfc			lsh1			lsh2			lsh3			lsh4			llmal			lmmal			lcal			ltoe			lmt5			SBIKE			LBIKE			RBIKE			
		X1	Y1	Z1	X2	Y2	Z2	X3	Y3	Z3	X4	Y4	Z4	X5	Y5	Z5	X6	Y6	Z6	X7	Y7	Z7	X8	Y8	Z8	X9	Y9	Z9	X10	Y10	Z10	X11	Y11	Z11	X12	Y12	Z12	X13	Y13	Z13	X14	Y14	Z14	X15	Y15	Z15	X16	Y16	Z16	X17	Y17	Z17	X18	Y18	Z18	X19	Y19	Z19	X20	Y20	Z20	X21	Y21	Z21	X22	Y22	Z22	X23	Y23	Z23	X24	Y24	Z24	X25	Y25	Z25	X26	Y26	Z26	X27	Y27	Z27	X28	Y28	Z28	X29	Y29	Z29	X30	Y30	Z30	X31	Y31	Z31	X32	Y32	Z32	X33	Y33	Z33	X34	Y34	Z34	X35	Y35	Z35	X36	Y36	Z36	X37	Y37	Z37	X38	Y38	Z38	X39	Y39	Z39	X40	Y40	Z40	X41	Y41	Z41	X42	Y42	Z42	X43	Y43	Z43	X44	Y44	Z44	X45	Y45	Z45	X46	Y46	Z46	X47	Y47	Z47	X48	Y48	Z48	X49	Y49	Z49	X50	Y50	Z50	
1	0.0050	457.150657	1309.180505	-129.542833	461.752682	1314.599024	-491.493481	485.317218	1352.454519	-315.241309	430.096416	1226.408406	-309.673273	573.456258	1065.935731	-97.214496	716.978269	888.406006	-113.585970	560.606279	1064.223913	-536.411663	707.378291	890.066838	-503.831337	4.186777	1111.123131	-328.210539	147.325095	1094.586101	-454.828201	123.860906	1109.853703	-172.640835	198.345992	1067.100089	-426.387566	177.476406	1086.469811	-195.130248	10.335321	1129.978774	-281.430470	24.524408	1131.788018	-365.320399	106.274149	1033.472683	-131.518053	102.667059	1002.248889	-487.752992	197.948150	1011.573847	-127.916609	284.559187	1001.244715	-138.118539	357.166635	960.841431	-116.269266	293.346931	1025.125874	-166.344070	476.911642	872.690009	-152.213031	471.785015	851.501914	-264.771217	455.815618	761.754686	-135.768638	439.717494	674.735679	-152.550461	388.544711	606.019947	-146.786008	454.547941	669.651202	-187.609741	332.367188	497.396102	-152.826178	345.153522	519.476027	-231.502058	544.679678	439.736488	-183.224637	433.951630	422.325110	-130.646719	465.061987	438.257712	-236.834131	209.950309	909.287968	-501.393159	279.108740	857.749722	-497.506248	304.624876	877.443225	-479.324570	312.039389	774.166078	-495.490896	366.817235	689.880193	-473.257937	367.874931	659.129833	-368.515448	316.069246	599.801601	-493.719322	284.042697	520.358642	-479.489437	213.382564	464.394132	-483.350703	299.499963	509.707905	-444.280304	140.981066	391.612200	-468.357198	158.698992	375.347671	-394.678268	63.821528	393.544103	-427.801513	257.355630	181.477343	-440.753742	165.692858	241.617568	-498.661132	-162.945862	859.862550	-310.175144	37.453035	86.608906	-514.452100	34.438880	81.651278	-114.525509	
2	0.0100	457.139236	1309.198546	-129.532924	461.736037	1314.584826	-491.541272	485.272583	1352.530788	-315.274406	430.072269	1226.483320	-309.657709	573.467212	1065.955025	-97.191124	716.983247	888.428146	-113.558097	560.611904	1064.217827	-536.442984	707.388182	890.077411	-503.846039	4.127879	1111.029807	-328.170968	147.264867	1094.569103	-454.865693	123.881800	1109.837265	-172.668498	198.335589	1067.097233	-426.424529	177.468349	1086.487833	-195.118866	10.315634	1129.968490	-281.421831	24.493852	1131.785256	-365.334374	106.274283	1033.464699	-131.531199	102.652216	1002.267120	-487.774656	197.951424	1011.552837	-127.929948	284.550364	1001.275002	-138.119150	357.145611	960.891371	-116.260453	293.352913	1025.129100	-166.355283	476.903322	872.700990	-152.205819	471.763621	851.502806	-264.772594	455.807133	761.789745	-135.769451	439.711609	674.738107	-152.550150	388.514735	606.037330	-146.778406	454.536293	669.676923	-187.591060	332.349810	497.429968	-152.846579	345.150581	519.496999	-231.524484	544.650670	439.767303	-183.237787	433.955605	422.344414	-130.652071	465.052613	438.271334	-236.817777	209.969339	909.306993	-501.389346	279.110807	857.780247	-497.524567	304.638340	877.477633	-479.337421	312.061255	774.201565	-495.514089	366.860087	689.906225	-473.294158	367.925797	659.140572	-368.557772	316.116349	599.823039	-493.739025	284.120914	520.339104	-479.521636	213.479779	464.370345	-483.367533	299.583316	509.727433	-444.293720	141.087589	391.587875	-468.373655	158.790109	375.314161	-394.701598	63.956852	393.576929	-427.808657	257.355660	181.402795	-440.753252	165.738940	241.598204	-498.672925	-162.798471	858.854284	-313.277068	37.464298	86.592534	-514.468165	34.099903	81.966452	-114.718091	
3	0.0150	457.145678	1309.223429	-129.532183	461.723832	1314.599503	-491.575875	485.171488	1352.665254	-315.285714	430.086471	1226.527324	-309.627627	573.491895	1065.969008	-97.178661	716.979167	888.428018	-113.545110	560.611250	1064.249404	-536.461864	707.380938	890.079422	-503.846552	4.107088	1111.021523	-328.158536	147.259267	1094.571509	-454.849565	123.867569	1109.824139	-172.670795	198.319198	1067.088714	-426.438467	177.468349	1086.487833	-195.118866	10.286442	1129.969431	-281.393031	24.467783	1131.787694	-365.329501	106.260529	1033.449720	-131.549558	102.641757	1002.272635	-487.778326	197.942569	1011.549780	-127.930355	284.534446	1001.284235	-138.117295	357.153652	960.913084	-116.265964	293.341359	1025.140185	-166.350631	476.903214	872.713599	-152.211000	471.779466	851.530604	-264.786867	455.803685	761.800504	-135.769966	439.674729	674.769655	-152.553258	388.510716	606.052350	-146.785885	454.529044	669.691305	-187.603682	332.343581	497.434287	-152.850156	345.141208	519.517139	-231.524743	544.657497	439.782569	-183.233411	433.927370	422.369181	-130.661373	465.032717	438.302059	-236.842124	209.968811	909.339345	-501.401794	279.135190	857.816352	-497.540213	304.650818	877.524350	-479.342022	312.094068	774.232725	-495.529294	366.891687	689.932413	-473.323609	367.974830	659.161252	-368.560424	316.169930	599.860155	-493.757240	284.190025	520.369316	-479.541740	213.545596	464.385954	-483.397450	299.655665	509.727686	-444.318599	141.208440	391.577772	-468.407785	158.921722	375.332807	-394.727305	64.069865	393.606043	-427.820547	257.348635	181.333537	-440.758691	165.769281	241.560613	-498.669951	-162.732207	858.640061	-313.890147	37.454097	86.608264	-514.467313	34.096448	81.917818	-114.695641	
4	0.0200	457.141468	1309.255501	-129.537989	461.706156	1314.608382	-491.598586	484.358286	1352.862856	-315.507900	430.100984	1226.558474	-309.604084	573.016676	1066.449990	-96.340265	717.074048	888.438376	-113.685490	560.721607	1064.341169	-536.149528	707.372346	890.104389	-503.862546	4.073641	1111.038757	-328.149855	147.220724	1094.570060	-454.878817	123.546570	1109.290975	-173.337582	198.321855	1067.086776	-426.472018	177.431907	1086.505511	-195.106893	9.782976	1130.080708	-281.231783	23.597523	1131.018011	-367.144157	106.194694	1033.565675	-132.342892	102.636589	1002.265789	-487.781208	197.262770	1010.998185	-128.191923	284.533539	1001.291657	-138.120778	357.148863	960.916991	-116.262187	293.408835	1025.664875	-165.865638	476.901508	872.744238	-152.211293	471.794892	851.554775	-264.779520	455.809472	761.826799	-135.776531	438.540603	674.344515	-153.132361	388.506574	606.080745	-146.783425	457.472366	670.490677	-187.599440	332.039018	498.155228	-152.295240	345.262818	519.280027	-231.762735	544.642329	439.794298	-183.237470	433.927573	422.373777	-130.660943	465.032603	438.316974	-236.844653	209.981218	909.364496	-501.399873	279.361634	857.409346	-497.510592	304.665836	877.553376	-479.344279	312.110325	774.195651	-495.541510	367.086942	689.787274	-473.452422	368.022256	659.173401	-368.596151	316.619407	599.553564	-493.911279	284.506785	520.372088	-479.978222	213.506404	464.595547	-483.493559	301.265121	511.304146	-443.553784	141.448178	391.500194	-468.481289	159.050248	375.277962	-394.744427	64.176519	393.619786	-427.816073	257.363707	181.264632	-440.772801	165.775626	241.371990	-498.753097	-162.770831	859.725802	-310.518008	37.454945	86.606835	-514.463027	34.454352	81.660587	-114.519780	
5	0.0250	456.806077	1309.602966	-128.978845	461.415739	1314.790948	-491.130394	484.126276	1353.106614	-314.925949	430.109247	1226.649713	-309.628840	573.015365	1066.539710	-96.368034	716.753627	888.616726	-113.209851	560.533758	1064.588412	-535.938594	707.083718	890.032936	-503.376013	4.140510	1111.232238	-328.158703	147.238648	1094.270979	-454.947135	123.465810	1109.745683	-173.173641	198.324779	1066.957396	-426.256858	177.466475	1086.458770	-195.196223	9.784481	1130.115714	-281.220983	23.519718	1130.832670	-367.118879	106.027122	1034.138524	-131.573596	102.637417	1002.321211	-487.686088	196.949918	1011.433030	-127.765962	284.238026	1001.728076	-137.748136	356.792758	961.419750	-115.667709	293.311374	1025.425398	-166.056968	476.865080	872.938668	-152.139596	471.558623	852.002729	-264.418560	455.347816	762.249255	-135.453719	438.541850	674.896732	-152.864095	388.160902	606.450457	-146.484222	457.265538	671.173901	-187.537920	331.947813	498.205362	-152.200731	344.937522	519.602529	-231.315649	544.371358	440.037563	-182.979334	433.507649	422.882280	-130.189917	464.940384	438.803632	-236.817187	209.852121	909.682088	-501.099639	279.447632	857.554991	-497.442335	304.720383	877.629144	-479.262464	312.153314	774.311118	-495.498078	366.811572	690.175240	-473.140436	367.441840	659.723482	-368.233494	316.309925	599.927799	-493.710617	284.207415	520.825785	-479.533262	213.704578	464.555857	-483.330987	301.375990	511.351314	-443.345253	141.440051	391.563588	-468.494910	159.135310	375.275771	-394.756709	64.280391	393.634613	-427.831173	257.328429	181.256490	-440.633633	165.819467	241.425906	-498.667083	-162.738991	858.886015	-313.211533	37.517787	86.624374	-514.484798	33.510934	82.589274	-114.820838	
6	0.0300	456.770571	1309.678492	-128.901170	461.355431	1314.798878	-491.028997	484.066148	1353.213102	-314.829097	430.096011	1226.694589	-309.582936	573.039540	1066.598881	-96.350358	716.693719	888.628596	-113.090327	560.487612	1064.627155	-535.964376	707.008838	890.077001	-503.259049	4.119745	1111.269205	-328.149428	147.410236	1094.018302	-454.887845	123.438349	1109.750920	-173.132687	198.298477	1066.918565	-426.201107	177.473467	1086.477439	-195.203766	9.759764	1130.111405	-281.228224	23.492838	1130.797110	-367.087973	105.979312	1034.227023	-131.418195	102.635181	1002.330157	-487.637722	196.906727	1011.507842	-127.719584	284.202634	1001.834282	-137.665831	356.735992	961.567025	-115.522869	293.304576	1025.374628	-166.119429	476.841420	873.015931	-152.086851	471.524969	852.117098	-264.328985	455.309453	762.293750	-135.439146	438.588967	675.076243	-152.754630	388.119221	606.545685	-146.424261	457.300955	671.342951	-187.344285	331.902946	498.266631	-152.133323	344.903564	519.696666	-231.226238	544.340361	440.063770	-182.963765	433.460622	422.956696	-130.117962	464.923136	438.840845	-236.790894	209.853058	909.763999	-501.047250	279.493881	857.624466	-497.401459	304.766105	877.683311	-479.200896	312.198917	774.379182	-495.465976	366.805745	690.264853	-473.088254	367.433781	659.769960	-368.216798	316.335189	600.026757	-493.679453	284.208750	520.894565	-479.444422	213.787166	464.552875	-483.294777	301.430657	511.416635	-443.309172	141.483959	391.577859	-468.496618	159.204571	375.264368	-394.731498	64.359517	393.658525	-427.834226	257.310461	181.226094	-440.552938	165.848328	241.464436	-498.641730	-162.709854	858.826066	-313.347292	37.544858	86.656562	-514.458539	33.960206	82.274603	-114.616500	
